<svg width="50" height="50" viewBox="0 0 50 50" fill="none" xmlns="http://www.w3.org/2000/svg">
<path d="M0 26.1667C0 39.3295 11.1929 50 25 50C38.8071 50 50 39.3295 50 26.1667L33.3333 26.1667C33.3333 30.5543 29.6024 34.1111 25 34.1111C20.3976 34.1111 16.6667 30.5543 16.6667 26.1667L0 26.1667Z" fill="white"/>
<path d="M0 17.5C0 12.8976 3.73096 9.16667 8.33333 9.16667C12.9357 9.16667 16.6667 12.8976 16.6667 17.5V26.3333C16.6667 30.9357 12.9357 34.6667 8.33333 34.6667C3.73096 34.6667 0 30.9357 0 26.3333V17.5Z" fill="white"/>
<path d="M34.7171 14.6004C33.8427 15.9187 33.3333 17.5002 33.3333 19.2007V41.6395C33.3333 46.2419 37.0643 49.9729 41.6667 49.9729C46.269 49.9729 50 46.2419 50 41.6395V19.2007C50 17.5002 49.4907 15.9187 48.6162 14.6004C47.124 16.8501 44.5686 18.3333 41.6667 18.3333C38.7648 18.3333 36.2093 16.8501 34.7171 14.6004Z" fill="white"/>
<path d="M47.5 5.83333C47.5 9.05499 44.8883 11.6667 41.6667 11.6667C38.445 11.6667 35.8333 9.05499 35.8333 5.83333C35.8333 2.61167 38.445 0 41.6667 0C44.8883 0 47.5 2.61167 47.5 5.83333Z" fill="white"/>
</svg>
