<svg width="31" height="30" viewBox="0 0 31 30" fill="none" xmlns="http://www.w3.org/2000/svg">
<path fill-rule="evenodd" clip-rule="evenodd" d="M15.3789 0C6.88347 0 0 6.88347 0 15.3789C0 22.1723 4.40542 27.9394 10.5179 29.9719C11.2889 30.112 11.5692 29.6415 11.5692 29.2309C11.5692 28.8655 11.5542 27.8993 11.5492 26.6177C7.26894 27.5439 6.36783 24.5552 6.36783 24.5552C5.66697 22.778 4.66073 22.3024 4.66073 22.3024C3.26401 21.3513 4.76586 21.3713 4.76586 21.3713C6.30776 21.4814 7.11876 22.9532 7.11876 22.9532C8.49044 25.3061 10.7182 24.6253 11.5943 24.2348C11.7344 23.2386 12.1349 22.5627 12.5705 22.1773C9.15626 21.7918 5.56685 20.4702 5.56685 14.5779C5.56685 12.8959 6.16759 11.5242 7.14879 10.4478C6.9936 10.0624 6.46295 8.49545 7.29898 6.37785C7.29898 6.37785 8.59057 5.96734 11.5292 7.95478C12.7557 7.61436 14.0723 7.44416 15.3789 7.43915C16.6855 7.44416 18.0021 7.61436 19.2287 7.95478C22.1673 5.96734 23.4538 6.37785 23.4538 6.37785C24.2949 8.49545 23.7692 10.0624 23.609 10.4478C24.5953 11.5242 25.186 12.8959 25.186 14.5779C25.186 20.4852 21.5916 21.7818 18.1673 22.1673C18.718 22.6378 19.2086 23.579 19.2086 25.0108C19.2086 27.0683 19.1936 28.7253 19.1936 29.2309C19.1936 29.6415 19.4689 30.122 20.2499 29.9719C26.3574 27.9344 30.7578 22.1723 30.7578 15.3789C30.7578 6.88347 23.8744 0 15.3789 0Z" fill="white"/>
</svg>
