<svg width="30" height="30" viewBox="0 0 30 30" fill="none" xmlns="http://www.w3.org/2000/svg">
<path d="M24.375 0H5.625C2.51953 0 0 2.51953 0 5.625V24.375C0 27.4805 2.51953 30 5.625 30H24.375C27.4805 30 30 27.4805 30 24.375V5.625C30 2.51953 27.4805 0 24.375 0ZM9.27584 25.4657H4.61538L4.58834 11.5114H9.2488L9.27584 25.4657ZM6.82843 9.686H6.80138C5.27794 9.686 4.29537 8.63582 4.29537 7.32873C4.29537 5.99008 5.3095 4.97596 6.85998 4.97596C8.41046 4.97596 9.36148 5.99008 9.39303 7.32873C9.39303 8.63582 8.40595 9.686 6.82843 9.686ZM25.4342 25.4657H20.7332V17.8846C20.7332 16.0502 20.2464 14.8017 18.6058 14.8017C17.3528 14.8017 16.6767 15.6445 16.3522 16.4603C16.2305 16.7533 16.1989 17.1544 16.1989 17.5646V25.4657H11.4754L11.4483 11.5114H16.1719L16.1989 13.4811C16.8029 12.5481 17.808 11.2275 20.2148 11.2275C23.1986 11.2275 25.4297 13.1746 25.4297 17.3618V25.4657H25.4342Z" fill="white"/>
</svg>
